<?xml version="1.0" encoding="UTF-8" standalone="no"?>
<svg width="1778px" height="342px" viewBox="0 0 1778 342" version="1.1" xmlns="http://www.w3.org/2000/svg" xmlns:xlink="http://www.w3.org/1999/xlink" xmlns:sketch="http://www.bohemiancoding.com/sketch/ns">
    <!-- Generator: Sketch 3.5.1 (25234) - http://www.bohemiancoding.com/sketch -->
    <title>Group 2</title>
    <desc>Created with Sketch.</desc>
    <defs>
        <filter x="-50%" y="-50%" width="200%" height="200%" filterUnits="objectBoundingBox" id="filter-1">
            <feGaussianBlur stdDeviation="0" in="SourceGraphic" result="blur"></feGaussianBlur>
        </filter>
        <filter x="-50%" y="-50%" width="200%" height="200%" filterUnits="objectBoundingBox" id="filter-2">
            <feGaussianBlur stdDeviation="0" in="SourceGraphic" result="blur"></feGaussianBlur>
        </filter>
        <filter x="-50%" y="-50%" width="200%" height="200%" filterUnits="objectBoundingBox" id="filter-3">
            <feGaussianBlur stdDeviation="0" in="SourceGraphic" result="blur"></feGaussianBlur>
        </filter>
        <filter x="-50%" y="-50%" width="200%" height="200%" filterUnits="objectBoundingBox" id="filter-4">
            <feGaussianBlur stdDeviation="0" in="SourceGraphic" result="blur"></feGaussianBlur>
        </filter>
    </defs>
    <g id="Page-1" stroke="none" stroke-width="1" fill="none" fill-rule="evenodd" sketch:type="MSPage">
        <g id="Group-2" sketch:type="MSLayerGroup">
            <g id="Group" sketch:type="MSShapeGroup">
                <g id="wagon-copy">
                    <path d="M0.0223869078,19.8085622 L59.2320996,0.553402723 L66.4953623,23.858168 L47.7682581,29.7616729 L79.3338199,131.159701 L107.203264,131.159701 L107.203264,155.004848 L61.5829871,155.004848 L25.2683061,36.6922282 L7.54685933,42.1871917 L0.0223869078,19.8085622 Z" id="handle" fill="#424648"></path>
                    <g id="tummy" transform="translate(106.367393, 109.170081)">
                        <rect id="body" fill="#173B6B" x="0" y="0" width="552.510794" height="124.17055"></rect>
                        <path d="M0,0.288908775 L552.510794,0.288908775 L552.510794,90.0028147 L467.643757,56.7747579 C467.643757,56.7747579 452.039742,40.8250084 344.453989,32.0224858 C236.868237,23.2199632 0,22.7759878 0,22.7759878 L0,0.288908775 Z" id="neck" fill="#092437"></path>
                    </g>
                    <rect id="bottom" fill="#106BAC" x="246.793737" y="233.340631" width="284.196173" height="38.3345322"></rect>
                    <g id="wheel" transform="translate(65.197945, 156.671566)">
                        <path d="M92.7816916,185.005786 C144.023605,185.005786 185.563383,143.59083 185.563383,92.5028929 C185.563383,41.4149558 144.023605,0 92.7816916,0 C41.5397783,0 0,41.4149558 0,92.5028929 C0,143.59083 41.5397783,185.005786 92.7816916,185.005786 Z" id="tire" fill="#424648" filter="url(#filter-1)"></path>
                        <path d="M92.3637561,162.505082 C130.910601,162.505082 162.158993,131.350588 162.158993,92.9195726 C162.158993,54.4885569 130.910601,23.3340631 92.3637561,23.3340631 C53.8169114,23.3340631 22.5685196,54.4885569 22.5685196,92.9195726 C22.5685196,131.350588 53.8169114,162.505082 92.3637561,162.505082 Z" id="middle" fill="#FFFFFF" filter="url(#filter-2)"></path>
                        <ellipse id="axel" fill="#608EAB" cx="92.526531" cy="93.0818584" rx="18.9698746" ry="18.9128722"></ellipse>
                    </g>
                    <g id="wheel-copy" transform="translate(513.436617, 156.671566)">
                        <path d="M92.7816916,185.005786 C144.023605,185.005786 185.563383,143.59083 185.563383,92.5028929 C185.563383,41.4149558 144.023605,0 92.7816916,0 C41.5397783,0 0,41.4149558 0,92.5028929 C0,143.59083 41.5397783,185.005786 92.7816916,185.005786 Z" id="tire" fill="#424648" filter="url(#filter-3)"></path>
                        <path d="M92.3637561,162.505082 C130.910601,162.505082 162.158993,131.350588 162.158993,92.9195726 C162.158993,54.4885569 130.910601,23.3340631 92.3637561,23.3340631 C53.8169114,23.3340631 22.5685196,54.4885569 22.5685196,92.9195726 C22.5685196,131.350588 53.8169114,162.505082 92.3637561,162.505082 Z" id="middle" fill="#FFFFFF" filter="url(#filter-4)"></path>
                        <ellipse id="axel" fill="#608EAB" cx="92.526531" cy="93.0818584" rx="18.9698746" ry="18.9128722"></ellipse>
                    </g>
                    <rect id="top" fill="#106BAC" x="80.4553891" y="67.502111" width="601.827189" height="43.3346886" rx="40"></rect>
                </g>
                <path d="M745.64,68.4 L793.16,68.4 L834.92,204.912 L880.136,67.824 L918.152,67.824 L963.368,204.912 L1005.128,68.4 L1051.496,68.4 L982.664,271.44 L944.072,271.44 L898.568,139.536 L853.064,271.44 L814.472,271.44 L745.64,68.4 Z M1136.744,242.64 C1147.11205,242.64 1155.41597,240.144025 1161.656,235.152 C1167.89603,230.159975 1171.016,223.63204 1171.016,215.568 L1171.016,207.792 C1167.17598,206.063991 1162.90402,204.672005 1158.2,203.616 C1153.49598,202.559995 1148.45603,202.032 1143.08,202.032 C1133.67195,202.032 1126.28003,203.855982 1120.904,207.504 C1115.52797,211.152018 1112.84,216.431965 1112.84,223.344 L1112.84,223.92 C1112.84,229.87203 1115.04798,234.479984 1119.464,237.744 C1123.88002,241.008016 1129.63996,242.64 1136.744,242.64 L1136.744,242.64 Z M1123.496,272.88 C1116.19996,272.88 1109.33603,271.87201 1102.904,269.856 C1096.47197,267.83999 1090.85602,264.81602 1086.056,260.784 C1081.25598,256.75198 1077.46401,251.808029 1074.68,245.952 C1071.89599,240.095971 1070.504,233.328038 1070.504,225.648 L1070.504,225.072 C1070.504,216.623958 1072.03998,209.328031 1075.112,203.184 C1078.18402,197.039969 1082.45597,191.95202 1087.928,187.92 C1093.40003,183.88798 1099.92796,180.86401 1107.512,178.848 C1115.09604,176.83199 1123.49595,175.824 1132.712,175.824 C1140.58404,175.824 1147.44797,176.399994 1153.304,177.552 C1159.16003,178.704006 1164.87197,180.23999 1170.44,182.16 L1170.44,179.568 C1170.44,170.351954 1167.65603,163.344024 1162.088,158.544 C1156.51997,153.743976 1148.26405,151.344 1137.32,151.344 C1128.87196,151.344 1121.43203,152.063993 1115,153.504 C1108.56797,154.944007 1101.80004,157.007987 1094.696,159.696 L1083.752,126.288 C1092.20004,122.639982 1101.03195,119.664012 1110.248,117.36 C1119.46405,115.055988 1130.59993,113.904 1143.656,113.904 C1155.75206,113.904 1166.07196,115.391985 1174.616,118.368 C1183.16004,121.344015 1190.21597,125.615972 1195.784,131.184 C1201.54403,136.944029 1205.76799,143.999958 1208.456,152.352 C1211.14401,160.704042 1212.488,170.063948 1212.488,180.432 L1212.488,270 L1170.152,270 L1170.152,253.296 C1164.77597,259.24803 1158.34404,263.999982 1150.856,267.552 C1143.36796,271.104018 1134.24805,272.88 1123.496,272.88 L1123.496,272.88 Z M1324.52,221.04 C1329.89603,221.04 1334.88798,220.176009 1339.496,218.448 C1344.10402,216.719991 1348.08798,214.272016 1351.448,211.104 C1354.80802,207.935984 1357.44799,204.144022 1359.368,199.728 C1361.28801,195.311978 1362.248,190.512026 1362.248,185.328 L1362.248,184.752 C1362.248,179.567974 1361.28801,174.768022 1359.368,170.352 C1357.44799,165.935978 1354.80802,162.144016 1351.448,158.976 C1348.08798,155.807984 1344.10402,153.360009 1339.496,151.632 C1334.88798,149.903991 1329.89603,149.04 1324.52,149.04 C1319.14397,149.04 1314.20002,149.903991 1309.688,151.632 C1305.17598,153.360009 1301.24002,155.807984 1297.88,158.976 C1294.51998,162.144016 1291.88001,165.935978 1289.96,170.352 C1288.03999,174.768022 1287.08,179.567974 1287.08,184.752 L1287.08,185.328 C1287.08,196.080054 1290.63196,204.719967 1297.736,211.248 C1304.84004,217.776033 1313.76795,221.04 1324.52,221.04 L1324.52,221.04 Z M1283.048,312.48 C1271.52794,309.695986 1260.87205,305.712026 1251.08,300.528 L1266.056,267.696 C1274.12004,272.112022 1282.23196,275.567988 1290.392,278.064 C1298.55204,280.560012 1307.81595,281.808 1318.184,281.808 C1333.16007,281.808 1344.24796,278.256036 1351.448,271.152 C1358.64804,264.047964 1362.248,253.584069 1362.248,239.76 L1362.248,232.272 C1355.71997,240.144039 1348.61604,246.287978 1340.936,250.704 C1333.25596,255.120022 1323.56006,257.328 1311.848,257.328 C1302.82395,257.328 1294.18404,255.744016 1285.928,252.576 C1277.67196,249.407984 1270.37603,244.752031 1264.04,238.608 C1257.70397,232.463969 1252.66402,224.928045 1248.92,216 C1245.17598,207.071955 1243.304,196.848058 1243.304,185.328 C1243.304,173.231942 1245.22398,163.008045 1249.064,154.08 C1252.90402,145.151955 1257.99197,137.616031 1264.328,131.472 C1270.66403,125.327969 1277.95996,120.672016 1286.216,117.504 C1294.47204,114.335984 1303.01596,112.752 1311.848,112.752 C1323.75206,112.752 1333.54396,114.959978 1341.224,119.376 C1348.90404,123.792022 1355.71997,129.263967 1361.672,135.792 L1361.672,115.632 L1405.448,115.632 L1405.448,235.152 C1405.448,262.608137 1398.92007,282.863935 1385.864,295.92 C1378.56796,303.216036 1369.40006,308.495984 1358.36,311.76 C1347.31994,315.024016 1334.31207,316.656 1319.336,316.656 C1306.66394,316.656 1294.56806,315.264014 1283.048,312.48 Z M1520.936,235.728 C1527.27203,235.728 1532.88798,234.624011 1537.784,232.416 C1542.68002,230.207989 1546.85598,227.184019 1550.312,223.344 C1553.76802,219.503981 1556.40799,215.040025 1558.232,209.952 C1560.05601,204.863975 1560.968,199.440029 1560.968,193.68 L1560.968,193.104 C1560.968,187.343971 1560.00801,181.920025 1558.088,176.832 C1556.16799,171.743975 1553.38402,167.23202 1549.736,163.296 C1546.08798,159.35998 1541.76802,156.240012 1536.776,153.936 C1531.78398,151.631988 1526.31203,150.48 1520.36,150.48 C1514.02397,150.48 1508.40802,151.583989 1503.512,153.792 C1498.61598,156.000011 1494.44002,159.023981 1490.984,162.864 C1487.52798,166.704019 1484.88801,171.167975 1483.064,176.256 C1481.23999,181.344025 1480.328,186.767971 1480.328,192.528 L1480.328,193.104 C1480.328,198.864029 1481.28799,204.287975 1483.208,209.376 C1485.12801,214.464025 1487.91198,218.97598 1491.56,222.912 C1495.20802,226.84802 1499.47998,229.967988 1504.376,232.272 C1509.27202,234.576012 1514.79197,235.728 1520.936,235.728 L1520.936,235.728 Z M1520.36,273.456 C1508.45594,273.456 1497.41605,271.392021 1487.24,267.264 C1477.06395,263.135979 1468.28004,257.472036 1460.888,250.272 C1453.49596,243.071964 1447.68802,234.624048 1443.464,224.928 C1439.23998,215.231952 1437.128,204.816056 1437.128,193.68 L1437.128,193.104 C1437.128,181.967944 1439.23998,171.552048 1443.464,161.856 C1447.68802,152.159952 1453.54396,143.664036 1461.032,136.368 C1468.52004,129.071964 1477.35195,123.312021 1487.528,119.088 C1497.70405,114.863979 1508.83994,112.752 1520.936,112.752 C1532.84006,112.752 1543.87995,114.815979 1554.056,118.944 C1564.23205,123.072021 1573.01596,128.735964 1580.408,135.936 C1587.80004,143.136036 1593.60798,151.583952 1597.832,161.28 C1602.05602,170.976048 1604.168,181.391944 1604.168,192.528 L1604.168,193.104 C1604.168,204.240056 1602.05602,214.655952 1597.832,224.352 C1593.60798,234.048048 1587.75204,242.543964 1580.264,249.84 C1572.77596,257.136036 1563.94405,262.895979 1553.768,267.12 C1543.59195,271.344021 1532.45606,273.456 1520.36,273.456 L1520.36,273.456 Z M1635.848,115.632 L1679.624,115.632 L1679.624,137.52 C1682.12001,134.255984 1684.85599,131.136015 1687.832,128.16 C1690.80801,125.183985 1694.11998,122.544012 1697.768,120.24 C1701.41602,117.935988 1705.44798,116.112007 1709.864,114.768 C1714.28002,113.423993 1719.27197,112.752 1724.84,112.752 C1741.54408,112.752 1754.45595,117.839949 1763.576,128.016 C1772.69605,138.192051 1777.256,152.207911 1777.256,170.064 L1777.256,270 L1733.48,270 L1733.48,183.888 C1733.48,173.519948 1731.17602,165.696026 1726.568,160.416 C1721.95998,155.135974 1715.43204,152.496 1706.984,152.496 C1698.53596,152.496 1691.86402,155.135974 1686.968,160.416 C1682.07198,165.696026 1679.624,173.519948 1679.624,183.888 L1679.624,270 L1635.848,270 L1635.848,115.632 Z" id="Wagon" fill="#183C69"></path>
            </g>
        </g>
    </g>
</svg>