<?xml version="1.0" encoding="UTF-8" standalone="no"?>
<svg width="1777px" height="342px" viewBox="0 0 1777 342" version="1.1" xmlns="http://www.w3.org/2000/svg" xmlns:xlink="http://www.w3.org/1999/xlink" xmlns:sketch="http://www.bohemiancoding.com/sketch/ns">
    <!-- Generator: Sketch 3.5.1 (25234) - http://www.bohemiancoding.com/sketch -->
    <title>Group</title>
    <desc>Created with Sketch.</desc>
    <defs>
        <filter x="-50%" y="-50%" width="200%" height="200%" filterUnits="objectBoundingBox" id="filter-1">
            <feGaussianBlur stdDeviation="0" in="SourceGraphic" result="blur"></feGaussianBlur>
        </filter>
        <filter x="-50%" y="-50%" width="200%" height="200%" filterUnits="objectBoundingBox" id="filter-2">
            <feGaussianBlur stdDeviation="0" in="SourceGraphic" result="blur"></feGaussianBlur>
        </filter>
        <filter x="-50%" y="-50%" width="200%" height="200%" filterUnits="objectBoundingBox" id="filter-3">
            <feGaussianBlur stdDeviation="0" in="SourceGraphic" result="blur"></feGaussianBlur>
        </filter>
        <filter x="-50%" y="-50%" width="200%" height="200%" filterUnits="objectBoundingBox" id="filter-4">
            <feGaussianBlur stdDeviation="0" in="SourceGraphic" result="blur"></feGaussianBlur>
        </filter>
    </defs>
    <g id="Page-1" stroke="none" stroke-width="1" fill="none" fill-rule="evenodd" sketch:type="MSPage">
        <g id="Group" sketch:type="MSLayerGroup">
            <g id="wagon-copy" sketch:type="MSShapeGroup">
                <path d="M0.0223869078,19.8085622 L59.2320996,0.553402723 L66.4953623,23.858168 L47.7682581,29.7616729 L79.3338199,131.159701 L107.203264,131.159701 L107.203264,155.004848 L61.5829871,155.004848 L25.2683061,36.6922282 L7.54685933,42.1871917 L0.0223869078,19.8085622 Z" id="handle" fill="#424648"></path>
                <g id="tummy" transform="translate(106.367393, 109.170081)">
                    <rect id="body" fill="#173B6B" x="0" y="0" width="552.510794" height="124.17055"></rect>
                    <path d="M0,0.288908775 L552.510794,0.288908775 L552.510794,90.0028147 L467.643757,56.7747579 C467.643757,56.7747579 452.039742,40.8250084 344.453989,32.0224858 C236.868237,23.2199632 0,22.7759878 0,22.7759878 L0,0.288908775 Z" id="neck" fill="#092437"></path>
                </g>
                <rect id="bottom" fill="#106BAC" x="246.793737" y="233.340631" width="284.196173" height="38.3345322"></rect>
                <g id="wheel" transform="translate(65.197945, 156.671566)">
                    <path d="M92.7816916,185.005786 C144.023605,185.005786 185.563383,143.59083 185.563383,92.5028929 C185.563383,41.4149558 144.023605,0 92.7816916,0 C41.5397783,0 -1.42108547e-14,41.4149558 -1.42108547e-14,92.5028929 C-1.42108547e-14,143.59083 41.5397783,185.005786 92.7816916,185.005786 Z" id="tire" fill="#424648" filter="url(#filter-1)"></path>
                    <path d="M92.3637561,162.505082 C130.910601,162.505082 162.158993,131.350588 162.158993,92.9195726 C162.158993,54.4885569 130.910601,23.3340631 92.3637561,23.3340631 C53.8169114,23.3340631 22.5685196,54.4885569 22.5685196,92.9195726 C22.5685196,131.350588 53.8169114,162.505082 92.3637561,162.505082 Z" id="middle" fill="#FFFFFF" filter="url(#filter-2)"></path>
                    <ellipse id="axel" fill="#608EAB" cx="92.526531" cy="93.0818584" rx="18.9698746" ry="18.9128722"></ellipse>
                </g>
                <g id="wheel-copy" transform="translate(513.436617, 156.671566)">
                    <path d="M92.7816916,185.005786 C144.023605,185.005786 185.563383,143.59083 185.563383,92.5028929 C185.563383,41.4149558 144.023605,0 92.7816916,0 C41.5397783,0 0,41.4149558 0,92.5028929 C0,143.59083 41.5397783,185.005786 92.7816916,185.005786 Z" id="tire" fill="#424648" filter="url(#filter-3)"></path>
                    <path d="M92.3637561,162.505082 C130.910601,162.505082 162.158993,131.350588 162.158993,92.9195726 C162.158993,54.4885569 130.910601,23.3340631 92.3637561,23.3340631 C53.8169114,23.3340631 22.5685196,54.4885569 22.5685196,92.9195726 C22.5685196,131.350588 53.8169114,162.505082 92.3637561,162.505082 Z" id="middle" fill="#FFFFFF" filter="url(#filter-4)"></path>
                    <ellipse id="axel" fill="#608EAB" cx="92.526531" cy="93.0818584" rx="18.9698746" ry="18.9128722"></ellipse>
                </g>
                <rect id="top" fill="#106BAC" x="80.4553891" y="67.502111" width="601.827189" height="43.3346886" rx="40"></rect>
            </g>
            <text id="Wagon" sketch:type="MSTextLayer" font-family="Gotham Bold" font-size="288" font-weight="bold" fill="#183C69">
                <tspan x="737" y="270">Wagon</tspan>
            </text>
        </g>
    </g>
</svg>